# xmcd
#
# Track frame offsets:
#	150
#	10625
#	22200
#	31447
#	44547
#	58425
#	76125
#	89497
#	101775
#	110925
#	124200
#	136325
#	146285
#	162547
#	170712
#	180487
#
# Disc length: 2690 seconds
#
# Revision: 0
# Processed by: cddbd v1.4PL0 Copyright (c) Steve Scherf et al.
# Submitted via: EasyCDDAExtractor 4.6.0.1
#
DISCID=e80a8010
DTITLE=Various Artist - Soul Sister Brown Sugar
DYEAR=1900
DGENRE=R&B
TTITLE0=Soul Sister, Brown Sugar - (Sam and Dave)
TTITLE1=Dock Of The Bay - (Percy Sledge)
TTITLE2=Every Beat Of My Heart - (Gladys Knight)
TTITLE3=When A Man Loves A Woman - (Percy Sledge)
TTITLE4=Wonderful World - (The Drifters)
TTITLE5=Stand By Me - (The Drifters)
TTITLE6=Spanish Harlem - (Ben E King)
TTITLE7=Louie Louie - (The Kingsmen)
TTITLE8=Ain't No Sunshine - (Al Jarreau)
TTITLE9=Sixteen Candles - (The Crests)
TTITLE10=My Guy - (Mary Wells)
TTITLE11=Operator - (Gladys Knight)
TTITLE12=Cupid - (The Drifters)
TTITLE13=The Letter - (The Boxtops)
TTITLE14=Save The Last Dance For Me - (The Drifters)
TTITLE15=Try Me - (James Brown)
EXTD=
EXTT0=
EXTT1=
EXTT2=
EXTT3=
EXTT4=
EXTT5=
EXTT6=
EXTT7=
EXTT8=
EXTT9=
EXTT10=
EXTT11=
EXTT12=
EXTT13=
EXTT14=
EXTT15=
PLAYORDER=
